<svg width="127" height="55" viewBox="0 0 127 55" fill="none" xmlns="http://www.w3.org/2000/svg">
<path fill-rule="evenodd" clip-rule="evenodd" d="M56.4042 27.131C56.9974 26.8821 57.5064 26.4425 57.8629 25.871C58.2195 25.2995 58.4066 24.6234 58.3992 23.9333C58.3992 21.0554 56.5175 19.6288 53.9331 19.6288H47.1546V35.2728H54.5225C56.7896 35.2728 59.0113 33.551 59.0113 30.919C59.0113 27.7952 56.4042 27.1556 56.4042 27.131ZM50.6912 22.8757H53.321C53.5025 22.8638 53.6842 22.8938 53.8542 22.9638C54.0242 23.0338 54.1785 23.1421 54.3071 23.2815C54.4357 23.421 54.5355 23.5885 54.6 23.773C54.6645 23.9574 54.6921 24.1546 54.6812 24.3515C54.6777 24.5483 54.6375 24.7423 54.563 24.9217C54.4885 25.1012 54.3813 25.2624 54.2479 25.3957C54.1144 25.529 53.9575 25.6317 53.7865 25.6974C53.6155 25.7631 53.434 25.7906 53.253 25.7782H50.6912V22.8757ZM53.3436 32.0013H50.6912V28.9266H53.2756C54.5678 28.9266 55.1799 29.5416 55.1799 30.4517C55.1799 31.5832 54.4092 32.0013 53.3436 32.0013Z" fill="#ED0007"/>
<path fill-rule="evenodd" clip-rule="evenodd" d="M66.8099 19.2352C62.6385 19.2352 60.1901 22.8511 60.1901 27.4262C60.1901 32.0259 62.6385 35.6172 66.8099 35.6172C71.0039 35.6172 73.4297 32.0259 73.4297 27.4262C73.4297 22.8511 71.0039 19.2352 66.8099 19.2352ZM66.8099 31.8783C64.7696 31.8783 63.7494 29.8859 63.7494 27.4262C63.7494 24.9664 64.7696 22.9986 66.8099 22.9986C68.8503 22.9986 69.8931 24.991 69.8931 27.4262C69.8931 29.9105 68.8503 31.8783 66.8099 31.8783Z" fill="#ED0007"/>
<path fill-rule="evenodd" clip-rule="evenodd" d="M81.115 25.7782L80.6162 25.6552C79.392 25.3847 78.4172 25.0403 78.4172 24.081C78.4172 23.0479 79.3467 22.6297 80.1628 22.6297C80.7195 22.6392 81.2685 22.773 81.7756 23.0227C82.2826 23.2723 82.7368 23.6326 83.11 24.081L85.3543 21.6704C84.3342 20.416 82.6792 19.2107 80.0948 19.2107C77.0569 19.2107 74.7446 21.0555 74.7446 24.1302C74.7446 26.9343 76.6035 28.3118 78.8706 28.8283L79.3693 28.9513C81.251 29.3695 81.9538 29.6892 81.9538 30.6731C81.9538 31.6078 81.183 32.2228 80.0041 32.2228C78.5985 32.2228 77.329 31.5586 76.3542 30.2058L74.0645 32.6655C75.334 34.3136 76.9436 35.5926 80.0495 35.5926C82.7472 35.5926 85.6264 33.92 85.6264 30.5009C85.6717 26.9343 83.178 26.2456 81.115 25.7782Z" fill="#ED0007"/>
<path fill-rule="evenodd" clip-rule="evenodd" d="M93.6971 31.8784C92.1101 31.8784 90.4552 30.4517 90.4552 27.3279C90.4552 24.5483 91.9968 22.9987 93.6064 22.9987C94.8759 22.9987 95.6241 23.6382 96.2135 24.7451L99.1153 22.6543C97.6644 20.2684 95.9414 19.2599 93.561 19.2599C89.2083 19.2599 86.8506 22.9249 86.8506 27.3525C86.8506 32.0014 89.4577 35.6418 93.5157 35.6418C96.3722 35.6418 97.7324 34.5595 99.206 32.2474L96.2815 30.1074C95.6921 31.1405 95.0573 31.8784 93.6971 31.8784Z" fill="#ED0007"/>
<path fill-rule="evenodd" clip-rule="evenodd" d="M108.796 19.6288V25.3846H104.42V19.6288H100.634V35.2728H104.42V29.0988H108.796V35.2728H112.582V19.6288H108.796Z" fill="#ED0007"/>
<path d="M25.3456 15.644C23.1844 15.644 21.0717 16.3394 19.2748 17.6421C17.4778 18.9449 16.0772 20.7965 15.2502 22.9629C14.4231 25.1293 14.2067 27.5132 14.6284 29.813C15.05 32.1129 16.0907 34.2254 17.6189 35.8835C19.1471 37.5416 21.0941 38.6708 23.2138 39.1282C25.3334 39.5857 27.5305 39.3509 29.5272 38.4535C31.5239 37.5562 33.2305 36.0366 34.4312 34.0869C35.6319 32.1372 36.2727 29.8449 36.2727 27.5C36.2712 24.3562 35.1194 21.3415 33.0705 19.1185C31.0216 16.8954 28.2432 15.6457 25.3456 15.644ZM25.3456 38.2491C23.3862 38.2491 21.4707 37.6187 19.8415 36.4376C18.2123 35.2565 16.9425 33.5777 16.1927 31.6135C15.4429 29.6494 15.2467 27.4881 15.6289 25.403C16.0112 23.3179 16.9547 21.4026 18.3403 19.8993C19.7258 18.396 21.491 17.3722 23.4128 16.9575C25.3346 16.5427 27.3265 16.7556 29.1368 17.5692C30.9471 18.3827 32.4943 19.7605 33.5829 21.5282C34.6715 23.2958 35.2526 25.3741 35.2526 27.5C35.2499 30.35 34.2052 33.0824 32.3479 35.0976C30.4906 37.1128 27.9722 38.2462 25.3456 38.2491Z" fill="black"/>
<path d="M29.857 20.0962H29.1089V24.1548H21.605V20.0962H20.8342C19.7053 20.9044 18.7789 22.0038 18.138 23.296C17.497 24.5881 17.1615 26.0326 17.1615 27.5C17.1615 28.9674 17.497 30.4119 18.138 31.7041C18.7789 32.9962 19.7053 34.0957 20.8342 34.9039H21.605V30.8453H29.1089V34.9039H29.857C30.9858 34.0957 31.9122 32.9962 32.5532 31.7041C33.1942 30.4119 33.5297 28.9674 33.5297 27.5C33.5297 26.0326 33.1942 24.5881 32.5532 23.296C31.9122 22.0038 30.9858 20.9044 29.857 20.0962ZM20.5621 33.305C19.8065 32.5764 19.2016 31.6824 18.7874 30.6819C18.3732 29.6813 18.1591 28.5969 18.1591 27.5C18.1591 26.4032 18.3732 25.3188 18.7874 24.3182C19.2016 23.3176 19.8065 22.4236 20.5621 21.695V33.305ZM29.1089 29.7138H21.605V25.2617H29.1089V29.7138ZM30.1291 33.2805V30.8207V24.1548V21.695C30.8782 22.4253 31.4773 23.3185 31.8874 24.3165C32.2975 25.3146 32.5094 26.395 32.5094 27.4877C32.5094 28.5804 32.2975 29.6609 31.8874 30.6589C31.4773 31.6569 30.8782 32.5501 30.1291 33.2805Z" fill="black"/>
</svg>
