<svg width="179" height="96" viewBox="0 0 179 96" fill="none" xmlns="http://www.w3.org/2000/svg">
<path d="M10.4971 89.8199H0V33.8164H28.8731V43.5313H10.4971V57.9812H27.6007V67.6689H10.4971V89.8199Z" fill="#B82323"/>
<path d="M33.7145 89.8199V33.8164H44.3829V89.8199H33.7145Z" fill="#439E33"/>
<path d="M83.7935 33.8164H94.5842L77.4561 89.8199H65.8091L48.7299 33.8164H59.5206L68.99 67.1518C69.5099 69.1111 70.0483 71.4106 70.6049 74.0366C71.1738 76.649 71.5347 78.4655 71.6815 79.4791C71.9262 77.1252 72.7826 73.0161 74.2507 67.1518L83.7935 33.8164Z" fill="#662E60"/>
<path d="M127.907 89.8199H98.9117V33.8164H127.907V43.5313H109.58V55.8314H126.635V65.5735H109.58V80.0234H127.907V89.8199Z" fill="#3095B5"/>
<path d="M178.148 74.2543C178.148 79.3159 176.508 83.3093 173.23 86.2279C169.963 89.1328 165.412 90.5819 159.576 90.5819C154.205 90.5819 149.452 89.4594 145.311 87.2075V76.1864C148.718 77.8736 151.599 79.0641 153.948 79.7513C156.297 80.4452 158.451 80.7853 160.408 80.7853C162.739 80.7853 164.531 80.2887 165.791 79.2886C167.045 78.2954 167.675 76.8123 167.675 74.853C167.675 73.7509 167.394 72.7712 166.843 71.914C166.287 71.0636 165.473 70.2405 164.396 69.4377C163.332 68.6417 161.167 67.3831 157.888 65.6551C154.817 64.0428 152.511 62.4985 150.963 61.029C149.428 59.5459 148.198 57.8179 147.268 55.8586C146.351 53.8857 145.898 51.5794 145.898 48.9466C145.898 43.9939 147.403 40.1025 150.425 37.2724C153.441 34.4287 157.619 33 162.953 33C165.577 33 168.073 33.347 170.44 34.0341C172.82 34.728 175.31 35.694 177.903 36.9458L174.453 46.1981C171.774 44.9667 169.559 44.1163 167.798 43.6401C166.036 43.1503 164.305 42.9054 162.61 42.9054C160.585 42.9054 159.038 43.436 157.961 44.4837C156.885 45.5178 156.346 46.8784 156.346 48.5656C156.346 49.6201 156.554 50.5385 156.982 51.3141C157.423 52.076 158.114 52.8312 159.062 53.5727C160.023 54.3007 162.28 55.6069 165.84 57.4913C170.55 59.9949 173.78 62.5121 175.53 65.0292C177.273 67.5328 178.148 70.6078 178.148 74.2543Z" fill="#C07D19"/>
<path d="M133.49 42.4736L133.08 41.7216C133.49 40.0582 134.014 38.2809 134.652 36.3896C135.29 34.4755 135.985 32.5729 136.737 30.6816C137.489 28.7675 138.241 26.9902 138.993 25.3495H143.163C142.707 27.1041 142.24 28.9954 141.762 31.0234C141.306 33.0514 140.884 35.068 140.497 37.0732C140.11 39.0556 139.791 40.8557 139.54 42.4736H133.49Z" fill="black"/>
</svg>
