<svg xmlns="http://www.w3.org/2000/svg" xmlns:xlink="http://www.w3.org/1999/xlink" width="500" zoomAndPan="magnify" viewBox="0 0 375 374.999991" height="500" preserveAspectRatio="xMidYMid meet" version="1.0"><defs><g/></defs><rect x="-37.5" width="450" fill="#ffffff" y="-37.499999" height="449.999989" fill-opacity="1"/><rect x="-37.5" width="450" fill="#ffffff" y="-37.499999" height="449.999989" fill-opacity="1"/><g fill="#b82323" fill-opacity="1"><g transform="translate(50.360344, 224.252553)"><g><path d="M 22.921875 0 L 8.625 0 L 8.625 -68.515625 L 47.890625 -68.515625 L 47.890625 -56.609375 L 22.921875 -56.609375 L 22.921875 -38.9375 L 46.15625 -38.9375 L 46.15625 -27.078125 L 22.921875 -27.078125 Z M 22.921875 0 "/></g></g></g><g fill="#439e33" fill-opacity="1"><g transform="translate(103.042342, 224.252553)"><g><path d="M 8.625 0 L 8.625 -68.515625 L 23.15625 -68.515625 L 23.15625 0 Z M 8.625 0 "/></g></g></g><g fill="#662e60" fill-opacity="1"><g transform="translate(134.826315, 224.252553)"><g><path d="M 47.703125 -68.515625 L 62.375 -68.515625 L 39.078125 0 L 23.25 0 L 0 -68.515625 L 14.671875 -68.515625 L 27.546875 -27.734375 C 28.265625 -25.328125 29.003906 -22.523438 29.765625 -19.328125 C 30.535156 -16.128906 31.015625 -13.90625 31.203125 -12.65625 C 31.546875 -15.53125 32.71875 -20.554688 34.71875 -27.734375 Z M 47.703125 -68.515625 "/></g></g></g><g fill="#3095b5" fill-opacity="1"><g transform="translate(197.195809, 224.252553)"><g><path d="M 48.078125 0 L 8.625 0 L 8.625 -68.515625 L 48.078125 -68.515625 L 48.078125 -56.609375 L 23.15625 -56.609375 L 23.15625 -41.5625 L 46.34375 -41.5625 L 46.34375 -29.65625 L 23.15625 -29.65625 L 23.15625 -12 L 48.078125 -12 Z M 48.078125 0 "/></g></g></g><g fill="#000000" fill-opacity="1"><g transform="translate(250.951422, 224.252553)"><g><path d="M 19.03125 -68.515625 L 19.6875 -67.484375 C 18.125 -61.328125 15.375 -53.84375 11.4375 -45.03125 L 1.171875 -45.03125 C 3.328125 -54.28125 4.890625 -62.109375 5.859375 -68.515625 Z M 19.03125 -68.515625 "/></g></g></g><g fill="#c07d19" fill-opacity="1"><g transform="translate(271.774543, 224.252553)"><g><path d="M 49.0625 -19.03125 C 49.0625 -12.84375 46.832031 -7.96875 42.375 -4.40625 C 37.925781 -0.84375 31.738281 0.9375 23.8125 0.9375 C 16.5 0.9375 10.03125 -0.4375 4.40625 -3.1875 L 4.40625 -16.6875 C 9.03125 -14.625 12.941406 -13.171875 16.140625 -12.328125 C 19.347656 -11.484375 22.273438 -11.0625 24.921875 -11.0625 C 28.109375 -11.0625 30.550781 -11.671875 32.25 -12.890625 C 33.957031 -14.109375 34.8125 -15.921875 34.8125 -18.328125 C 34.8125 -19.671875 34.4375 -20.863281 33.6875 -21.90625 C 32.9375 -22.957031 31.832031 -23.960938 30.375 -24.921875 C 28.925781 -25.890625 25.972656 -27.4375 21.515625 -29.5625 C 17.328125 -31.53125 14.1875 -33.421875 12.09375 -35.234375 C 10 -37.046875 8.328125 -39.15625 7.078125 -41.5625 C 5.828125 -43.96875 5.203125 -46.78125 5.203125 -50 C 5.203125 -56.0625 7.253906 -60.828125 11.359375 -64.296875 C 15.472656 -67.765625 21.148438 -69.5 28.390625 -69.5 C 31.953125 -69.5 35.347656 -69.078125 38.578125 -68.234375 C 41.816406 -67.390625 45.203125 -66.203125 48.734375 -64.671875 L 44.046875 -53.375 C 40.390625 -54.875 37.363281 -55.921875 34.96875 -56.515625 C 32.582031 -57.109375 30.234375 -57.40625 27.921875 -57.40625 C 25.179688 -57.40625 23.078125 -56.765625 21.609375 -55.484375 C 20.140625 -54.203125 19.40625 -52.53125 19.40625 -50.46875 C 19.40625 -49.1875 19.703125 -48.066406 20.296875 -47.109375 C 20.890625 -46.160156 21.832031 -45.238281 23.125 -44.34375 C 24.414062 -43.457031 27.484375 -41.859375 32.328125 -39.546875 C 38.734375 -36.484375 43.125 -33.410156 45.5 -30.328125 C 47.875 -27.253906 49.0625 -23.488281 49.0625 -19.03125 Z M 49.0625 -19.03125 "/></g></g></g></svg>