<svg width="1620" height="421" viewBox="0 0 1620 421" fill="none" xmlns="http://www.w3.org/2000/svg">
<ellipse cx="337.5" cy="210.5" rx="337.5" ry="210.5" fill="url(#paint0_linear_154_2)"/>
<ellipse cx="883" cy="210.5" rx="344" ry="210.5" fill="url(#paint1_linear_154_2)"/>
<ellipse cx="1300" cy="210.5" rx="320" ry="210.5" fill="url(#paint2_linear_154_2)"/>
<path d="M170.5 128V58.1818H200.636C205.818 58.1818 210.352 59.2045 214.239 61.25C218.125 63.2955 221.148 66.1705 223.307 69.875C225.466 73.5795 226.545 77.9091 226.545 82.8636C226.545 87.8636 225.432 92.1932 223.205 95.8523C221 99.5114 217.898 102.33 213.898 104.307C209.92 106.284 205.273 107.273 199.955 107.273H181.955V92.5455H196.136C198.364 92.5455 200.261 92.1591 201.83 91.3864C203.42 90.5909 204.636 89.4659 205.477 88.0114C206.341 86.5568 206.773 84.8409 206.773 82.8636C206.773 80.8636 206.341 79.1591 205.477 77.75C204.636 76.3182 203.42 75.2273 201.83 74.4773C200.261 73.7045 198.364 73.3182 196.136 73.3182H189.455V128H170.5ZM233.5 128V58.1818H263.636C268.818 58.1818 273.352 59.125 277.239 61.0114C281.125 62.8977 284.148 65.6136 286.307 69.1591C288.466 72.7045 289.545 76.9545 289.545 81.9091C289.545 86.9091 288.432 91.125 286.205 94.5568C284 97.9886 280.898 100.58 276.898 102.33C272.92 104.08 268.273 104.955 262.955 104.955H244.955V90.2273H259.136C261.364 90.2273 263.261 89.9545 264.83 89.4091C266.42 88.8409 267.636 87.9432 268.477 86.7159C269.341 85.4886 269.773 83.8864 269.773 81.9091C269.773 79.9091 269.341 78.2841 268.477 77.0341C267.636 75.7614 266.42 74.8295 264.83 74.2386C263.261 73.625 261.364 73.3182 259.136 73.3182H252.455V128H233.5ZM274.409 95.9545L291.864 128H271.273L254.227 95.9545H274.409ZM365.261 93.0909C365.261 100.864 363.75 107.42 360.727 112.761C357.705 118.08 353.625 122.114 348.489 124.864C343.352 127.591 337.625 128.955 331.307 128.955C324.943 128.955 319.193 127.58 314.057 124.83C308.943 122.057 304.875 118.011 301.852 112.693C298.852 107.352 297.352 100.818 297.352 93.0909C297.352 85.3182 298.852 78.7727 301.852 73.4545C304.875 68.1136 308.943 64.0795 314.057 61.3523C319.193 58.6023 324.943 57.2273 331.307 57.2273C337.625 57.2273 343.352 58.6023 348.489 61.3523C353.625 64.0795 357.705 68.1136 360.727 73.4545C363.75 78.7727 365.261 85.3182 365.261 93.0909ZM345.761 93.0909C345.761 88.9091 345.205 85.3864 344.091 82.5227C343 79.6364 341.375 77.4545 339.216 75.9773C337.08 74.4773 334.443 73.7273 331.307 73.7273C328.17 73.7273 325.523 74.4773 323.364 75.9773C321.227 77.4545 319.602 79.6364 318.489 82.5227C317.398 85.3864 316.852 88.9091 316.852 93.0909C316.852 97.2727 317.398 100.807 318.489 103.693C319.602 106.557 321.227 108.739 323.364 110.239C325.523 111.716 328.17 112.455 331.307 112.455C334.443 112.455 337.08 111.716 339.216 110.239C341.375 108.739 343 106.557 344.091 103.693C345.205 100.807 345.761 97.2727 345.761 93.0909ZM197.364 244H170.5V174.182H197.091C204.273 174.182 210.477 175.58 215.705 178.375C220.955 181.148 225 185.148 227.841 190.375C230.705 195.58 232.136 201.818 232.136 209.091C232.136 216.364 230.716 222.614 227.875 227.841C225.034 233.045 221.011 237.045 215.807 239.841C210.602 242.614 204.455 244 197.364 244ZM189.455 227.909H196.682C200.136 227.909 203.08 227.352 205.511 226.239C207.966 225.125 209.83 223.205 211.102 220.477C212.398 217.75 213.045 213.955 213.045 209.091C213.045 204.227 212.386 200.432 211.068 197.705C209.773 194.977 207.864 193.057 205.341 191.943C202.841 190.83 199.773 190.273 196.136 190.273H189.455V227.909ZM282.224 174.182H301.179V218.909C301.179 224.227 299.906 228.83 297.361 232.716C294.838 236.58 291.315 239.568 286.793 241.682C282.27 243.773 277.02 244.818 271.043 244.818C265.02 244.818 259.747 243.773 255.224 241.682C250.702 239.568 247.179 236.58 244.656 232.716C242.156 228.83 240.906 224.227 240.906 218.909V174.182H259.861V217.273C259.861 219.432 260.338 221.364 261.293 223.068C262.247 224.75 263.565 226.068 265.247 227.023C266.952 227.977 268.884 228.455 271.043 228.455C273.224 228.455 275.156 227.977 276.838 227.023C278.52 226.068 279.838 224.75 280.793 223.068C281.747 221.364 282.224 219.432 282.224 217.273V174.182ZM308.278 189.455V174.182H368.96V189.455H347.96V244H329.278V189.455H308.278ZM395.048 174.182V244H376.094V174.182H395.048ZM189.591 290.182L203.909 339.409H204.455L218.773 290.182H240.182L217.136 360H191.227L168.182 290.182H189.591ZM265.861 290.182V360H246.906V290.182H265.861ZM301.707 360H274.844V290.182H301.435C308.616 290.182 314.821 291.58 320.048 294.375C325.298 297.148 329.344 301.148 332.185 306.375C335.048 311.58 336.48 317.818 336.48 325.091C336.48 332.364 335.06 338.614 332.219 343.841C329.378 349.045 325.355 353.045 320.151 355.841C314.946 358.614 308.798 360 301.707 360ZM293.798 343.909H301.026C304.48 343.909 307.423 343.352 309.855 342.239C312.31 341.125 314.173 339.205 315.446 336.477C316.741 333.75 317.389 329.955 317.389 325.091C317.389 320.227 316.73 316.432 315.412 313.705C314.116 310.977 312.207 309.057 309.685 307.943C307.185 306.83 304.116 306.273 300.48 306.273H293.798V343.909ZM358.98 360H338.526L361.571 290.182H387.48L410.526 360H390.071L374.798 309.409H374.253L358.98 360ZM355.162 332.455H393.616V346.636H355.162V332.455ZM444.114 360H417.25V290.182H443.841C451.023 290.182 457.227 291.58 462.455 294.375C467.705 297.148 471.75 301.148 474.591 306.375C477.455 311.58 478.886 317.818 478.886 325.091C478.886 332.364 477.466 338.614 474.625 343.841C471.784 349.045 467.761 353.045 462.557 355.841C457.352 358.614 451.205 360 444.114 360ZM436.205 343.909H443.432C446.886 343.909 449.83 343.352 452.261 342.239C454.716 341.125 456.58 339.205 457.852 336.477C459.148 333.75 459.795 329.955 459.795 325.091C459.795 320.227 459.136 316.432 457.818 313.705C456.523 310.977 454.614 309.057 452.091 307.943C449.591 306.83 446.523 306.273 442.886 306.273H436.205V343.909ZM487.656 360V290.182H537.974V305.455H506.611V317.455H535.384V332.727H506.611V344.727H537.838V360H487.656Z" fill="white"/>
<path d="M1168.14 86.0909C1168.14 93.8636 1166.63 100.42 1163.6 105.761C1160.58 111.08 1156.5 115.114 1151.36 117.864C1146.23 120.591 1140.5 121.955 1134.18 121.955C1127.82 121.955 1122.07 120.58 1116.93 117.83C1111.82 115.057 1107.75 111.011 1104.73 105.693C1101.73 100.352 1100.23 93.8182 1100.23 86.0909C1100.23 78.3182 1101.73 71.7727 1104.73 66.4545C1107.75 61.1136 1111.82 57.0795 1116.93 54.3523C1122.07 51.6023 1127.82 50.2273 1134.18 50.2273C1140.5 50.2273 1146.23 51.6023 1151.36 54.3523C1156.5 57.0795 1160.58 61.1136 1163.6 66.4545C1166.63 71.7727 1168.14 78.3182 1168.14 86.0909ZM1148.64 86.0909C1148.64 81.9091 1148.08 78.3864 1146.97 75.5227C1145.88 72.6364 1144.25 70.4545 1142.09 68.9773C1139.95 67.4773 1137.32 66.7273 1134.18 66.7273C1131.05 66.7273 1128.4 67.4773 1126.24 68.9773C1124.1 70.4545 1122.48 72.6364 1121.36 75.5227C1120.27 78.3864 1119.73 81.9091 1119.73 86.0909C1119.73 90.2727 1120.27 93.8068 1121.36 96.6932C1122.48 99.5568 1124.1 101.739 1126.24 103.239C1128.4 104.716 1131.05 105.455 1134.18 105.455C1137.32 105.455 1139.95 104.716 1142.09 103.239C1144.25 101.739 1145.88 99.5568 1146.97 96.6932C1148.08 93.8068 1148.64 90.2727 1148.64 86.0909ZM1176.91 121V51.1818H1207.04C1212.22 51.1818 1216.76 52.125 1220.64 54.0114C1224.53 55.8977 1227.55 58.6136 1229.71 62.1591C1231.87 65.7045 1232.95 69.9545 1232.95 74.9091C1232.95 79.9091 1231.84 84.125 1229.61 87.5568C1227.41 90.9886 1224.3 93.5795 1220.3 95.3295C1216.33 97.0795 1211.68 97.9545 1206.36 97.9545H1188.36V83.2273H1202.54C1204.77 83.2273 1206.67 82.9545 1208.24 82.4091C1209.83 81.8409 1211.04 80.9432 1211.88 79.7159C1212.75 78.4886 1213.18 76.8864 1213.18 74.9091C1213.18 72.9091 1212.75 71.2841 1211.88 70.0341C1211.04 68.7614 1209.83 67.8295 1208.24 67.2386C1206.67 66.625 1204.77 66.3182 1202.54 66.3182H1195.86V121H1176.91ZM1217.82 88.9545L1235.27 121H1214.68L1197.63 88.9545H1217.82ZM1145.84 190.227C1145.55 189.023 1145.08 187.966 1144.44 187.057C1143.81 186.125 1143.01 185.341 1142.06 184.705C1141.13 184.045 1140.03 183.557 1138.78 183.239C1137.56 182.898 1136.2 182.727 1134.73 182.727C1131.55 182.727 1128.83 183.489 1126.58 185.011C1124.35 186.534 1122.65 188.727 1121.47 191.591C1120.31 194.455 1119.73 197.909 1119.73 201.955C1119.73 206.045 1120.28 209.545 1121.4 212.455C1122.51 215.364 1124.17 217.591 1126.38 219.136C1128.58 220.682 1131.32 221.455 1134.59 221.455C1137.48 221.455 1139.88 221.034 1141.78 220.193C1143.72 219.352 1145.16 218.159 1146.11 216.614C1147.07 215.068 1147.55 213.25 1147.55 211.159L1150.82 211.5H1134.86V198H1165.82V207.682C1165.82 214.045 1164.47 219.489 1161.76 224.011C1159.08 228.511 1155.38 231.966 1150.65 234.375C1145.94 236.761 1140.55 237.955 1134.45 237.955C1127.66 237.955 1121.69 236.511 1116.56 233.625C1111.42 230.739 1107.41 226.625 1104.52 221.284C1101.66 215.943 1100.23 209.591 1100.23 202.227C1100.23 196.455 1101.1 191.341 1102.85 186.886C1104.63 182.432 1107.08 178.67 1110.22 175.602C1113.35 172.511 1116.98 170.182 1121.09 168.614C1125.2 167.023 1129.61 166.227 1134.32 166.227C1138.45 166.227 1142.3 166.818 1145.84 168C1149.41 169.159 1152.56 170.818 1155.28 172.977C1158.03 175.114 1160.25 177.648 1161.93 180.58C1163.61 183.511 1164.64 186.727 1165 190.227H1145.84ZM1190.64 237H1170.18L1193.23 167.182H1219.14L1242.18 237H1221.73L1206.45 186.409H1205.91L1190.64 237ZM1186.82 209.455H1225.27V223.636H1186.82V209.455ZM1309.32 167.182V237H1293.5L1268.27 200.318H1267.86V237H1248.91V167.182H1265L1289.82 203.727H1290.36V167.182H1309.32ZM1337.24 167.182V237H1318.28V167.182H1337.24ZM1100.77 353V342.5L1133.77 298.455H1100.91V283.182H1157.91V293.682L1124.91 337.727H1157.77V353H1100.77ZM1185.29 353H1164.84L1187.88 283.182H1213.79L1236.84 353H1216.38L1201.11 302.409H1200.57L1185.29 353ZM1181.47 325.455H1219.93V339.636H1181.47V325.455ZM1305.46 309.364H1286.24C1286.1 307.773 1285.74 306.33 1285.14 305.034C1284.58 303.739 1283.78 302.625 1282.76 301.693C1281.76 300.739 1280.54 300.011 1279.11 299.511C1277.68 298.989 1276.05 298.727 1274.24 298.727C1271.05 298.727 1268.36 299.5 1266.16 301.045C1263.97 302.591 1262.32 304.807 1261.18 307.693C1260.07 310.58 1259.51 314.045 1259.51 318.091C1259.51 322.364 1260.08 325.943 1261.21 328.83C1262.37 331.693 1264.04 333.852 1266.22 335.307C1268.41 336.739 1271.03 337.455 1274.1 337.455C1275.85 337.455 1277.42 337.239 1278.8 336.807C1280.19 336.352 1281.39 335.705 1282.42 334.864C1283.44 334.023 1284.27 333.011 1284.91 331.83C1285.57 330.625 1286.01 329.273 1286.24 327.773L1305.46 327.909C1305.24 330.864 1304.41 333.875 1302.97 336.943C1301.54 339.989 1299.51 342.807 1296.87 345.398C1294.26 347.966 1291.02 350.034 1287.16 351.602C1283.29 353.17 1278.8 353.955 1273.69 353.955C1267.28 353.955 1261.53 352.58 1256.44 349.83C1251.37 347.08 1247.36 343.034 1244.41 337.693C1241.47 332.352 1240.01 325.818 1240.01 318.091C1240.01 310.318 1241.51 303.773 1244.51 298.455C1247.51 293.114 1251.55 289.08 1256.64 286.352C1261.74 283.602 1267.42 282.227 1273.69 282.227C1278.1 282.227 1282.16 282.83 1285.86 284.034C1289.57 285.239 1292.82 287 1295.61 289.318C1298.41 291.614 1300.66 294.443 1302.36 297.807C1304.07 301.17 1305.1 305.023 1305.46 309.364ZM1270.01 352.455H1276.69L1276.14 355.591C1278.85 356 1280.95 356.955 1282.45 358.455C1283.95 359.955 1284.71 361.818 1284.74 364.045C1284.78 367.727 1282.97 370.625 1279.32 372.739C1275.68 374.852 1270.67 375.909 1264.28 375.909V368.682C1267.64 368.682 1270.21 368.318 1271.99 367.591C1273.76 366.886 1274.69 365.841 1274.78 364.455C1274.87 363.182 1274.37 362.125 1273.28 361.284C1272.21 360.466 1270.58 359.886 1268.37 359.545L1270.01 352.455ZM1330.04 353H1309.59L1332.63 283.182H1358.54L1381.59 353H1361.13L1345.86 302.409H1345.32L1330.04 353ZM1326.22 325.455H1364.68V339.636H1326.22V325.455ZM1336.32 276.364H1327.04C1327.04 271.455 1328.17 267.807 1330.42 265.42C1332.67 263.011 1335.41 261.795 1338.63 261.773C1340.41 261.773 1341.91 262.057 1343.13 262.625C1344.38 263.17 1345.47 263.818 1346.41 264.568C1347.34 265.318 1348.18 265.977 1348.93 266.545C1349.7 267.091 1350.5 267.364 1351.32 267.364C1352.63 267.341 1353.57 266.864 1354.11 265.932C1354.68 265 1354.97 263.705 1355 262.045H1364.13C1364.07 266.864 1362.91 270.511 1360.66 272.989C1358.43 275.466 1355.72 276.727 1352.54 276.773C1350.77 276.795 1349.26 276.523 1348.01 275.955C1346.78 275.386 1345.71 274.739 1344.8 274.011C1343.92 273.261 1343.09 272.602 1342.32 272.034C1341.54 271.466 1340.72 271.182 1339.86 271.182C1338.77 271.182 1337.91 271.625 1337.27 272.511C1336.63 273.375 1336.32 274.659 1336.32 276.364ZM1452.67 318.091C1452.67 325.864 1451.16 332.42 1448.13 337.761C1445.11 343.08 1441.03 347.114 1435.89 349.864C1430.76 352.591 1425.03 353.955 1418.71 353.955C1412.35 353.955 1406.6 352.58 1401.46 349.83C1396.35 347.057 1392.28 343.011 1389.26 337.693C1386.26 332.352 1384.76 325.818 1384.76 318.091C1384.76 310.318 1386.26 303.773 1389.26 298.455C1392.28 293.114 1396.35 289.08 1401.46 286.352C1406.6 283.602 1412.35 282.227 1418.71 282.227C1425.03 282.227 1430.76 283.602 1435.89 286.352C1441.03 289.08 1445.11 293.114 1448.13 298.455C1451.16 303.773 1452.67 310.318 1452.67 318.091ZM1433.17 318.091C1433.17 313.909 1432.61 310.386 1431.5 307.523C1430.41 304.636 1428.78 302.455 1426.62 300.977C1424.49 299.477 1421.85 298.727 1418.71 298.727C1415.58 298.727 1412.93 299.477 1410.77 300.977C1408.63 302.455 1407.01 304.636 1405.89 307.523C1404.8 310.386 1404.26 313.909 1404.26 318.091C1404.26 322.273 1404.8 325.807 1405.89 328.693C1407.01 331.557 1408.63 333.739 1410.77 335.239C1412.93 336.716 1415.58 337.455 1418.71 337.455C1421.85 337.455 1424.49 336.716 1426.62 335.239C1428.78 333.739 1430.41 331.557 1431.5 328.693C1432.61 325.807 1433.17 322.273 1433.17 318.091Z" fill="white"/>
<path d="M700.364 135H673.5V65.1818H700.091C707.273 65.1818 713.477 66.5795 718.705 69.375C723.955 72.1477 728 76.1477 730.841 81.375C733.705 86.5795 735.136 92.8182 735.136 100.091C735.136 107.364 733.716 113.614 730.875 118.841C728.034 124.045 724.011 128.045 718.807 130.841C713.602 133.614 707.455 135 700.364 135ZM692.455 118.909H699.682C703.136 118.909 706.08 118.352 708.511 117.239C710.966 116.125 712.83 114.205 714.102 111.477C715.398 108.75 716.045 104.955 716.045 100.091C716.045 95.2273 715.386 91.4318 714.068 88.7045C712.773 85.9773 710.864 84.0568 708.341 82.9432C705.841 81.8295 702.773 81.2727 699.136 81.2727H692.455V118.909ZM743.906 135V65.1818H794.224V80.4545H762.861V92.4545H791.634V107.727H762.861V119.727H794.088V135H743.906ZM841.261 87C841.08 84.7273 840.227 82.9545 838.705 81.6818C837.205 80.4091 834.92 79.7727 831.852 79.7727C829.898 79.7727 828.295 80.0114 827.045 80.4886C825.818 80.9432 824.909 81.5682 824.318 82.3636C823.727 83.1591 823.42 84.0682 823.398 85.0909C823.352 85.9318 823.5 86.6932 823.841 87.375C824.205 88.0341 824.773 88.6364 825.545 89.1818C826.318 89.7045 827.307 90.1818 828.511 90.6136C829.716 91.0455 831.148 91.4318 832.807 91.7727L838.534 93C842.398 93.8182 845.705 94.8977 848.455 96.2386C851.205 97.5795 853.455 99.1591 855.205 100.977C856.955 102.773 858.239 104.795 859.057 107.045C859.898 109.295 860.33 111.75 860.352 114.409C860.33 119 859.182 122.886 856.909 126.068C854.636 129.25 851.386 131.67 847.159 133.33C842.955 134.989 837.898 135.818 831.989 135.818C825.92 135.818 820.625 134.92 816.102 133.125C811.602 131.33 808.102 128.568 805.602 124.841C803.125 121.091 801.875 116.295 801.852 110.455H819.852C819.966 112.591 820.5 114.386 821.455 115.841C822.409 117.295 823.75 118.398 825.477 119.148C827.227 119.898 829.307 120.273 831.716 120.273C833.739 120.273 835.432 120.023 836.795 119.523C838.159 119.023 839.193 118.33 839.898 117.443C840.602 116.557 840.966 115.545 840.989 114.409C840.966 113.341 840.614 112.409 839.932 111.614C839.273 110.795 838.182 110.068 836.659 109.432C835.136 108.773 833.08 108.159 830.489 107.591L823.534 106.091C817.352 104.75 812.477 102.511 808.909 99.375C805.364 96.2159 803.602 91.9091 803.625 86.4545C803.602 82.0227 804.784 78.1477 807.17 74.8295C809.58 71.4886 812.909 68.8864 817.159 67.0227C821.432 65.1591 826.33 64.2273 831.852 64.2273C837.489 64.2273 842.364 65.1705 846.477 67.0568C850.591 68.9432 853.761 71.6023 855.989 75.0341C858.239 78.4432 859.375 82.4318 859.398 87H841.261ZM673.5 251V181.182H703.636C708.818 181.182 713.352 182.205 717.239 184.25C721.125 186.295 724.148 189.17 726.307 192.875C728.466 196.58 729.545 200.909 729.545 205.864C729.545 210.864 728.432 215.193 726.205 218.852C724 222.511 720.898 225.33 716.898 227.307C712.92 229.284 708.273 230.273 702.955 230.273H684.955V215.545H699.136C701.364 215.545 703.261 215.159 704.83 214.386C706.42 213.591 707.636 212.466 708.477 211.011C709.341 209.557 709.773 207.841 709.773 205.864C709.773 203.864 709.341 202.159 708.477 200.75C707.636 199.318 706.42 198.227 704.83 197.477C703.261 196.705 701.364 196.318 699.136 196.318H692.455V251H673.5ZM736.5 251V181.182H786.818V196.455H755.455V208.455H784.227V223.727H755.455V235.727H786.682V251H736.5ZM796.219 251V181.182H826.355C831.537 181.182 836.071 182.125 839.957 184.011C843.844 185.898 846.866 188.614 849.026 192.159C851.185 195.705 852.264 199.955 852.264 204.909C852.264 209.909 851.151 214.125 848.923 217.557C846.719 220.989 843.616 223.58 839.616 225.33C835.639 227.08 830.991 227.955 825.673 227.955H807.673V213.227H821.855C824.082 213.227 825.98 212.955 827.548 212.409C829.139 211.841 830.355 210.943 831.196 209.716C832.06 208.489 832.491 206.886 832.491 204.909C832.491 202.909 832.06 201.284 831.196 200.034C830.355 198.761 829.139 197.83 827.548 197.239C825.98 196.625 824.082 196.318 821.855 196.318H815.173V251H796.219ZM837.128 218.955L854.582 251H833.991L816.946 218.955H837.128ZM887.207 251H860.344V181.182H886.935C894.116 181.182 900.321 182.58 905.548 185.375C910.798 188.148 914.844 192.148 917.685 197.375C920.548 202.58 921.98 208.818 921.98 216.091C921.98 223.364 920.56 229.614 917.719 234.841C914.878 240.045 910.855 244.045 905.651 246.841C900.446 249.614 894.298 251 887.207 251ZM879.298 234.909H886.526C889.98 234.909 892.923 234.352 895.355 233.239C897.81 232.125 899.673 230.205 900.946 227.477C902.241 224.75 902.889 220.955 902.889 216.091C902.889 211.227 902.23 207.432 900.912 204.705C899.616 201.977 897.707 200.057 895.185 198.943C892.685 197.83 889.616 197.273 885.98 197.273H879.298V234.909ZM949.705 181.182V251H930.75V181.182H949.705ZM934.023 174.636L940.568 159.364H956.659L946.432 174.636H934.023ZM738.682 323.364H719.455C719.318 321.773 718.955 320.33 718.364 319.034C717.795 317.739 717 316.625 715.977 315.693C714.977 314.739 713.761 314.011 712.33 313.511C710.898 312.989 709.273 312.727 707.455 312.727C704.273 312.727 701.58 313.5 699.375 315.045C697.193 316.591 695.534 318.807 694.398 321.693C693.284 324.58 692.727 328.045 692.727 332.091C692.727 336.364 693.295 339.943 694.432 342.83C695.591 345.693 697.261 347.852 699.443 349.307C701.625 350.739 704.25 351.455 707.318 351.455C709.068 351.455 710.636 351.239 712.023 350.807C713.409 350.352 714.614 349.705 715.636 348.864C716.659 348.023 717.489 347.011 718.125 345.83C718.784 344.625 719.227 343.273 719.455 341.773L738.682 341.909C738.455 344.864 737.625 347.875 736.193 350.943C734.761 353.989 732.727 356.807 730.091 359.398C727.477 361.966 724.239 364.034 720.375 365.602C716.511 367.17 712.023 367.955 706.909 367.955C700.5 367.955 694.75 366.58 689.659 363.83C684.591 361.08 680.58 357.034 677.625 351.693C674.693 346.352 673.227 339.818 673.227 332.091C673.227 324.318 674.727 317.773 677.727 312.455C680.727 307.114 684.773 303.08 689.864 300.352C694.955 297.602 700.636 296.227 706.909 296.227C711.318 296.227 715.375 296.83 719.08 298.034C722.784 299.239 726.034 301 728.83 303.318C731.625 305.614 733.875 308.443 735.58 311.807C737.284 315.17 738.318 319.023 738.682 323.364ZM766.236 297.182V367H747.281V297.182H766.236ZM842.855 332.091C842.855 339.864 841.344 346.42 838.321 351.761C835.298 357.08 831.219 361.114 826.082 363.864C820.946 366.591 815.219 367.955 808.901 367.955C802.537 367.955 796.787 366.58 791.651 363.83C786.537 361.057 782.469 357.011 779.446 351.693C776.446 346.352 774.946 339.818 774.946 332.091C774.946 324.318 776.446 317.773 779.446 312.455C782.469 307.114 786.537 303.08 791.651 300.352C796.787 297.602 802.537 296.227 808.901 296.227C815.219 296.227 820.946 297.602 826.082 300.352C831.219 303.08 835.298 307.114 838.321 312.455C841.344 317.773 842.855 324.318 842.855 332.091ZM823.355 332.091C823.355 327.909 822.798 324.386 821.685 321.523C820.594 318.636 818.969 316.455 816.81 314.977C814.673 313.477 812.037 312.727 808.901 312.727C805.764 312.727 803.116 313.477 800.957 314.977C798.821 316.455 797.196 318.636 796.082 321.523C794.991 324.386 794.446 327.909 794.446 332.091C794.446 336.273 794.991 339.807 796.082 342.693C797.196 345.557 798.821 347.739 800.957 349.239C803.116 350.716 805.764 351.455 808.901 351.455C812.037 351.455 814.673 350.716 816.81 349.239C818.969 347.739 820.594 345.557 821.685 342.693C822.798 339.807 823.355 336.273 823.355 332.091ZM889.261 319C889.08 316.727 888.227 314.955 886.705 313.682C885.205 312.409 882.92 311.773 879.852 311.773C877.898 311.773 876.295 312.011 875.045 312.489C873.818 312.943 872.909 313.568 872.318 314.364C871.727 315.159 871.42 316.068 871.398 317.091C871.352 317.932 871.5 318.693 871.841 319.375C872.205 320.034 872.773 320.636 873.545 321.182C874.318 321.705 875.307 322.182 876.511 322.614C877.716 323.045 879.148 323.432 880.807 323.773L886.534 325C890.398 325.818 893.705 326.898 896.455 328.239C899.205 329.58 901.455 331.159 903.205 332.977C904.955 334.773 906.239 336.795 907.057 339.045C907.898 341.295 908.33 343.75 908.352 346.409C908.33 351 907.182 354.886 904.909 358.068C902.636 361.25 899.386 363.67 895.159 365.33C890.955 366.989 885.898 367.818 879.989 367.818C873.92 367.818 868.625 366.92 864.102 365.125C859.602 363.33 856.102 360.568 853.602 356.841C851.125 353.091 849.875 348.295 849.852 342.455H867.852C867.966 344.591 868.5 346.386 869.455 347.841C870.409 349.295 871.75 350.398 873.477 351.148C875.227 351.898 877.307 352.273 879.716 352.273C881.739 352.273 883.432 352.023 884.795 351.523C886.159 351.023 887.193 350.33 887.898 349.443C888.602 348.557 888.966 347.545 888.989 346.409C888.966 345.341 888.614 344.409 887.932 343.614C887.273 342.795 886.182 342.068 884.659 341.432C883.136 340.773 881.08 340.159 878.489 339.591L871.534 338.091C865.352 336.75 860.477 334.511 856.909 331.375C853.364 328.216 851.602 323.909 851.625 318.455C851.602 314.023 852.784 310.148 855.17 306.83C857.58 303.489 860.909 300.886 865.159 299.023C869.432 297.159 874.33 296.227 879.852 296.227C885.489 296.227 890.364 297.17 894.477 299.057C898.591 300.943 901.761 303.602 903.989 307.034C906.239 310.443 907.375 314.432 907.398 319H889.261Z" fill="white"/>
<path d="M97.6364 240.864V190.409H112.909V240.864H97.6364ZM80.0455 223.273V208H130.5V223.273H80.0455Z" fill="white"/>
<path d="M625.136 202.091V216.273H592.409V202.091H625.136Z" fill="white"/>
<path d="M1048.64 233.864V183.409H1063.91V233.864H1048.64ZM1031.05 216.273V201H1081.5V216.273H1031.05Z" fill="white"/>
<defs>
<linearGradient id="paint0_linear_154_2" x1="51" y1="210.5" x2="825" y2="210.5" gradientUnits="userSpaceOnUse">
<stop stop-color="#B82323"/>
<stop offset="1" stop-color="#B82323" stop-opacity="0"/>
</linearGradient>
<linearGradient id="paint1_linear_154_2" x1="655.106" y1="187.345" x2="1284.1" y2="182.096" gradientUnits="userSpaceOnUse">
<stop stop-color="#662E60"/>
<stop offset="1" stop-color="#662E60" stop-opacity="0"/>
</linearGradient>
<linearGradient id="paint2_linear_154_2" x1="1198.16" y1="210.5" x2="1711.27" y2="192.247" gradientUnits="userSpaceOnUse">
<stop stop-color="#C07D19"/>
<stop offset="1" stop-color="#C07D19" stop-opacity="0"/>
</linearGradient>
</defs>
</svg>
